<?xml version="1.0" encoding="utf-8"?>
<!-- Generator: Adobe Illustrator 25.0.1, SVG Export Plug-In . SVG Version: 6.00 Build 0)  -->
<svg version="1.1" id="Logo" xmlns="http://www.w3.org/2000/svg" xmlns:xlink="http://www.w3.org/1999/xlink" x="0px" y="0px"
	 viewBox="0 0 595.28 841.89" style="enable-background:new 0 0 595.28 841.89;" xml:space="preserve">
<style type="text/css">
	.st0{fill:#14728B;}
</style>
<path id="N" d="M247.37,369.71c0-10.62,0-21.24,0-31.86c0-10.02-0.36-17.32-1.09-21.89c-0.73-4.57-1.93-8.13-3.59-10.67
	c-1.67-2.54-3.89-4.57-6.64-6.1c-2.76-1.52-7.48-3.23-14.16-5.12v-10.67h68.18l107.61,179.49c5.23,8.71,9.62,16.34,13.18,22.87
	c3.55,6.54,7.22,13.87,11,22h2.83c-0.73-8.86-1.38-26.47-1.96-52.83c-0.58-26.36-0.87-50.14-0.87-71.34v-45.74
	c0-10.02-0.29-17.35-0.87-22c-0.58-4.65-1.63-8.2-3.16-10.67c-1.52-2.47-3.63-4.47-6.32-5.99c-2.69-1.52-7.37-3.23-14.05-5.12
	v-10.67h78.42v10.67c-6.54,1.74-11.15,3.34-13.83,4.79c-2.69,1.45-4.87,3.34-6.54,5.66c-1.67,2.32-2.94,5.81-3.81,10.46
	c-0.87,4.65-1.31,12.27-1.31,22.87v244.19h-27.23L301.82,378.58c-7.55-12.63-12.93-21.85-16.12-27.67
	c-3.2-5.81-6.17-11.54-8.93-17.21h-3.7c0.95,15.63,1.61,31.38,1.94,47.25 M247.37,412.41 M275.66,428.16
	c0.08,8.26,0.13,16.56,0.18,24.89c0.05,9.64,0.07,19.24,0.07,28.8v44.44c0,9.73,0.32,16.85,0.98,21.35
	c0.65,4.5,1.74,8.06,3.27,10.67c1.52,2.61,3.77,4.79,6.75,6.53c2.97,1.74,7.81,3.48,14.49,5.23v10.67h-79.51v-10.67
	c9-2.32,15.03-4.9,18.08-7.73c3.05-2.83,5.04-6.86,5.99-12.09c0.94-5.23,1.42-13.21,1.42-23.96V415.39 M275.63,425.18"/>
<path id="S" class="st0" d="M280.83,464.71c0.65-0.5,1.29-1.01,1.92-1.53c3.12-2.58,5.81-5.39,8.06-8.44
	c2.25-3.05,3.55-6.32,3.88-9.82c0.47-4.92-2.7-9.99-9.52-15.22c-6.7-5.08-13.65-9.21-20.86-12.39c-7.21-3.17-13.66-5.75-19.35-7.74
	c-6.95-2.5-14.72-5.66-23.3-9.49c-8.59-3.83-17.99-8.32-28.21-13.49c-16.97-8.42-30.91-19.69-41.84-33.81
	c-10.93-14.12-15.52-30.3-13.77-48.56c0.56-8.57,3.97-16.54,10.23-23.91c6.26-7.37,14.38-13.97,24.34-19.81
	c9.97-5.84,21.19-10.81,33.67-14.9c12.48-4.1,25.21-7.02,38.18-8.79c2.64-0.27,5.83-0.55,9.59-0.84c3.75-0.29,7.62-0.48,11.62-0.55
	c3.99-0.07,7.85-0.1,11.57-0.07c3.72,0.03,6.87,0.17,9.47,0.42c3.11,0.3,7,0.9,11.69,1.81c2.42,0.47,7.34,1.54,7.34,1.54
	s4.67,1.09,7.05,1.7c4.91,1.26,9.54,2.68,13.9,4.27c4.36,1.59,7.82,3.3,10.39,5.11c6.27,4.13,11.05,8.84,14.33,14.12
	c3.28,5.28,4.7,10.25,4.26,14.91c-0.16,1.69-0.56,3.74-1.18,6.16c-0.62,2.42-1.41,4.86-2.37,7.32c-0.96,2.46-2.03,4.77-3.22,6.95
	c-1.19,2.17-2.43,3.85-3.71,5.03c-3.47,3.46-9.22,4.8-17.25,4.03c0.84-8.81,0.31-16.24-1.59-22.3c-0.9-2.83-5.65-7.5-5.65-7.5
	l-9.74-5.74l-11.09-3.91c0,0-2.81-0.68-4.11-0.94c-2.07-0.42-3.94-0.71-5.62-0.87c-6.22-0.6-12.22-1.04-18.01-1.33
	c-5.79-0.29-11.47-0.28-17.06,0.03c-5.58,0.32-11.26,0.95-17.04,1.9c-5.78,0.95-11.83,2.36-18.15,4.24
	c-4.85,1.5-9.92,3.33-15.23,5.5c-5.3,2.17-10.25,4.73-14.85,7.69c-4.6,2.96-8.64,6.3-12.13,10.01c-3.49,3.72-5.86,7.94-7.09,12.65
	c-0.61,3.6,0.1,7.85,2.11,12.75c2.01,4.9,4.91,9.75,8.7,14.56c3.78,4.81,8.25,9.29,13.41,13.44c5.15,4.16,10.63,7.36,16.43,9.61
	c1,0.49,3.31,1.56,6.94,3.21c3.63,1.65,7.55,3.4,11.75,5.24c4.2,1.84,8.09,3.55,11.66,5.14c3.57,1.58,5.86,2.56,6.88,2.91
	c28.54,10.32,49.41,21.3,62.6,32.96c13.19,11.66,19.07,24.93,17.64,39.82c-0.46,4.79-1.99,9.45-4.57,13.97
	c-2.59,4.52-5.71,8.8-9.36,12.82c-3.66,4.03-7.53,7.68-11.63,10.94c-4.1,3.27-7.89,5.98-11.36,8.12c-3.01,1.95-6.31,3.92-9.9,5.92
	c-0.27,0.15-0.54,0.3-0.81,0.45 M242.39,516.62c-5.56,1.8-11.15,3.34-16.77,4.59c-6.01,1.38-12.3,2.57-18.87,3.58
	c-6.56,1-13.04,1.79-19.43,2.35c-6.39,0.56-12.5,0.92-18.33,1.08c-5.83,0.16-11.01,0.02-15.54-0.41c-3.37-0.32-7.69-1.23-12.97-2.71
	c-5.28-1.49-10.43-3.35-15.44-5.6c-5.01-2.25-9.25-4.75-12.71-7.49c-3.46-2.75-5.06-5.49-4.8-8.2c0.16-1.68,0.59-3.73,1.28-6.15
	c0.69-2.41,1.56-4.75,2.63-7c1.06-2.25,2.22-4.13,3.48-5.64c1.25-1.51,2.59-2.2,4.02-2.06c2.59,0.25,5.23,0.93,7.94,2.03
	c2.7,1.11,5.91,2.37,9.63,3.77c3.72,1.4,8.16,2.78,13.33,4.12c5.16,1.35,11.5,2.38,19.01,3.1c7.77,0.75,15.91,0.71,24.41-0.11
	c8.51-0.82,16.9-2.2,25.19-4.15c6.8-1.6,13.39-3.48,19.76-5.65c1.39-0.47,2.78-0.96,4.15-1.46c0.01,0,0.02-0.01,0.03-0.01"/>
</svg>
